<svg width="20" height="18" viewBox="0 0 20 18" fill="none" xmlns="http://www.w3.org/2000/svg">
<path fill-rule="evenodd" clip-rule="evenodd" d="M2 0.666672H18C19.1 0.666672 20 1.60417 20 2.75V15.25C20 16.3958 19.1 17.3333 18 17.3333H2C0.9 17.3333 0 16.3958 0 15.25V2.75C0 1.60417 0.9 0.666672 2 0.666672ZM11.06 9.35417L17.6 5.09376C17.85 4.92709 18 4.64584 18 4.34376C18 3.64584 17.27 3.22917 16.7 3.59376L10 7.95834L3.3 3.59376C2.73 3.22917 2 3.64584 2 4.34376C2 4.64584 2.15 4.92709 2.4 5.09376L8.94 9.35417C9.59 9.78126 10.41 9.78126 11.06 9.35417Z" fill="#929292" fill-opacity="0.54"/>
</svg>
