<svg width="361" height="409" viewBox="0 0 361 409" fill="none" xmlns="http://www.w3.org/2000/svg">
<path d="M292.067 30.8674C342.761 38.6299 302.48 122.562 287.41 159.198C243.357 246.348 71.8836 387.635 22.1531 284.004C-27.5774 180.373 241.373 23.1048 292.067 30.8674Z" fill="#FFDB1E" fill-opacity="0.3"/>
<path d="M207.553 408.865C121.768 411.781 92.8106 367.675 98.602 264.884C98.602 177.037 8.90036 107.427 11.7306 66.9557C15.3502 15.1955 84.4854 -10.3201 180.768 3.89577C277.05 18.1116 342.204 107.052 358.13 192.347C374.057 277.642 293.339 405.949 207.553 408.865Z" fill="#15521D" fill-opacity="0.15"/>
<g clip-path="url(#clip0_33_372)">
<path d="M321.374 360.882H183.48C178.274 360.882 173.66 357.629 171.654 352.546L61.6283 74.8457C54.9914 58.0534 67.0885 38.8634 84.3073 38.8634H206.21C211.416 38.8634 216.03 42.1168 218.036 47.1917L331.541 333.686L334.233 340.506C337.975 350.021 331.135 360.882 321.374 360.882Z" fill="#92A9C3"/>
<path d="M316.405 346.903H190.591C185.842 346.903 181.634 343.938 179.806 339.303L72.4892 66.2038C71.2194 62.9674 70.2713 59.6123 69.8057 56.164C67.139 36.7368 81.7843 39.592 96.0232 39.592H207.242C211.992 39.592 216.199 42.5574 218.027 47.1833L325.674 322.079L328.129 328.298C331.558 336.99 325.31 346.903 316.405 346.903Z" fill="#7F97B1"/>
<path d="M316.404 346.903H190.591C185.842 346.903 181.634 343.937 179.806 339.303L72.4891 66.2036C71.2193 62.9672 70.2711 59.6121 69.8055 56.1638C67.1389 36.7366 81.7842 39.5918 96.0231 39.5918H207.242C211.991 39.5918 216.199 42.5572 218.027 47.1831L325.674 322.079L328.129 328.297C331.558 336.99 325.31 346.903 316.404 346.903Z" fill="#7F97B1"/>
<path d="M312.604 338.617H312.485L197.6 340.074C192.911 340.133 188.635 337.092 186.663 332.296L145.428 231.577L120.37 170.355L76.2141 62.5183C72.5317 53.5375 78.3644 43.1419 87.1769 43.0233L203.518 41.5491C206.667 41.5067 209.638 42.7606 211.949 44.9635C213.329 46.2936 214.464 47.9542 215.268 49.8859L227.619 80.6831L276.854 203.541L323.38 319.622C326.91 328.408 321.188 338.498 312.604 338.617Z" fill="white"/>
<path d="M106.41 169.177C106.038 169.177 105.665 169.118 105.285 169.016C103.498 168.55 101.754 167.051 101.069 165.263L87.5578 130.026C86.8721 128.247 87.4647 126.748 88.8869 126.273C89.1917 126.171 89.5303 126.112 89.9028 126.112C90.9694 126.112 92.0953 126.553 93.0604 127.256C94.0254 127.968 94.8297 128.95 95.2529 130.026L108.764 165.263C109.585 167.432 108.535 169.177 106.41 169.177Z" fill="#7692B1"/>
<path d="M105.285 169.017C103.498 168.551 101.754 167.052 101.069 165.264L87.5578 130.027C86.8721 128.248 87.4647 126.749 88.8869 126.274C89.5895 126.461 90.2922 126.799 90.9186 127.257C91.8752 127.969 92.6879 128.951 93.1027 130.027L106.614 165.264C107.299 167.052 106.707 168.551 105.285 169.017Z" fill="#476587"/>
<path d="M280.283 356.968H246.666C245.405 356.968 244.38 355.943 244.38 354.681C244.38 353.418 245.405 352.393 246.666 352.393H280.283C281.544 352.393 282.568 353.418 282.568 354.681C282.56 355.943 281.535 356.968 280.283 356.968Z" fill="#476587"/>
</g>
<mask id="mask0_33_372" style="mask-type:alpha" maskUnits="userSpaceOnUse" x="75" y="41" width="250" height="300">
<path d="M312.604 338.617H312.485L197.6 340.074C192.911 340.133 188.635 337.092 186.663 332.296L145.428 231.576L120.37 170.355L76.2142 62.5181C72.5317 53.5374 78.3644 43.1417 87.177 43.0231L203.518 41.5489C206.667 41.5066 209.638 42.7605 211.949 44.9633C213.329 46.2935 214.464 47.9541 215.268 49.8858L227.619 80.6829L276.854 203.541L323.38 319.622C326.91 328.407 321.188 338.498 312.604 338.617Z" fill="#FFB9B9"/>
</mask>
<g mask="url(#mask0_33_372)">
<path d="M163.703 138.304C172.091 150.034 163.74 165.278 162.92 197.039C162.92 197.039 166.605 213.605 168.846 228.555C171.087 243.505 174.344 257.17 174.344 257.17L168.638 260.28C168.638 260.28 152.267 218.148 150.247 198.582L153.443 146.214L163.703 138.304Z" fill="#FFB8A1"/>
<path d="M164.475 87.9933C154.802 73.8514 133.093 77.1818 126.298 87.3199C118.07 99.5762 124.767 126.329 124.767 126.329C124.767 126.329 148.178 112.518 162.295 135.353C162.295 135.353 175.286 103.813 164.475 87.9933Z" fill="#2B0A10"/>
<path d="M138.236 110.633C138.236 110.633 138.138 121.101 133.118 129.99C133.118 129.99 136.069 136.823 145.913 133.713C145.913 133.713 145.105 124.725 152.317 114.783C157.141 108.11 138.236 110.633 138.236 110.633Z" fill="#FFB8A1"/>
<path d="M136.742 120.746C136.35 121.738 136.117 123.146 135.579 124.591C135.579 124.591 143.488 126.023 147.933 122.742C150.823 120.612 136.742 120.746 136.742 120.746Z" fill="#BC8273"/>
<path d="M158.659 105.515C158.659 105.515 162.957 102.111 162.908 106.666C162.859 111.943 157.888 113.498 157.153 111.735C156.431 109.959 158.659 105.515 158.659 105.515Z" fill="#FFB8A1"/>
<path d="M131.636 102.674C131.636 102.674 128.22 98.3886 127.228 102.821C126.078 107.963 130.571 110.608 131.685 109.065C132.812 107.523 131.636 102.674 131.636 102.674Z" fill="#FFB8A1"/>
<path d="M143.403 122.877C151.962 123.856 157.423 118.824 159.357 102.074C160.349 93.4298 156.565 87.6261 146.991 86.5241C137.416 85.4221 132.763 90.2585 131.771 98.9029C129.69 116.902 134.563 121.86 143.403 122.877Z" fill="#FFB8A1"/>
<path d="M144.089 87.9076C144.089 87.9076 155.892 91.2625 156.896 106.164C157.9 121.065 166.018 122.999 166.018 122.999C166.018 122.999 177.797 73.7045 143.464 78.6144C143.464 78.6144 136.142 77.7451 130.082 84.7487C124.021 91.7523 131.233 106.176 131.233 106.176C131.233 106.176 131.771 99.4783 132.996 98.2416C133.008 98.2294 139.877 95.7683 144.089 87.9076Z" fill="#2B0A10"/>
<path d="M95.1243 218.625C100.34 200.565 110.662 187.17 110.662 187.17L126.249 189.754L126.396 189.472L127.657 189.729H127.84V189.766L143.929 192.986C143.929 192.986 150.859 205.879 155.463 224.111C160.067 242.342 146.292 288.392 146.292 288.392C146.292 288.392 154.043 310.003 136.093 366.325H127.62C127.62 366.325 130.779 296.179 129.555 288.392C128.502 281.682 127.143 257.108 127.84 238.289C127.351 238.399 127.265 233.906 126.751 233.943C126.236 233.979 125.306 238.546 124.779 238.51C124.841 257.341 122.649 281.817 121.376 288.478C119.894 296.216 120.678 366.472 120.678 366.472L112.217 366.191C96.165 309.293 104.638 287.914 104.638 287.914C104.638 287.914 89.9083 236.685 95.1243 218.625Z" fill="#FFB8A1"/>
<path d="M109.413 187.635C126.371 200.431 144.333 194.1 144.333 194.1C144.333 194.1 149.023 186.289 155.463 170.898C159.124 167.935 162.528 166.735 163.899 163.233C165.65 158.788 164.573 151.405 164.683 150.022C164.952 146.618 167.597 144.585 165.528 140.533C163.74 137.031 157.753 134.778 151.912 132.868C145.729 130.958 139.717 128.766 134.305 125.154C131.918 123.562 129.677 121.762 127.608 119.791C125.33 117.587 123.396 115.408 122.171 112.445C121.167 110.033 107.821 97.7641 106.976 141.243C106.67 156.989 109.082 158.617 109.695 170.469C110.209 180.277 109.413 187.635 109.413 187.635Z" fill="#E0EB65"/>
<path d="M182.523 261.479C176.034 260.01 175.985 254.366 170.414 255.296C169.263 255.492 168.528 256.068 168.038 256.741C167.12 258.039 167.181 259.777 167.965 261.173C169.765 264.357 171.332 268.912 171.92 271.262C172.605 273.956 173.34 272.744 173.34 272.744C173.389 273.001 173.413 273.246 173.438 273.491C173.67 275.34 173.56 276.736 174.625 275.744C175.85 274.63 175.446 269.352 175.446 269.352C177.846 276.748 176.364 278.156 177.564 277.262C179.205 276.05 178.091 269.34 178.066 269.144C180.258 273.307 180.294 275.903 181.127 274.727C181.972 273.54 179.082 265.691 177.98 262.826C177.735 262.177 177.564 261.773 177.564 261.773C182.78 263.316 182.523 261.479 182.523 261.479Z" fill="#FFB8A1"/>
<path d="M177.98 262.814C177.735 262.165 177.564 261.761 177.564 261.761C177.564 261.761 175.372 262.349 173.352 260.218C173.352 260.231 174.356 263.365 177.98 262.814Z" fill="#DD9D8C"/>
<path d="M172.777 267.246C172.924 267.883 173.818 271.52 173.352 272.744C173.401 273.001 173.426 273.246 173.45 273.491C174.797 272.964 173.046 268.006 172.777 267.246Z" fill="#DD9D8C"/>
<path d="M116.589 31.291C116.589 31.291 121.388 63.4317 123.078 75.9206C124.082 83.3895 122.233 120.844 122.233 120.844C122.233 120.844 117.789 137.545 112.915 136.663C109.303 136.002 108.532 130.823 108.226 122.081C107.92 113.338 113.258 93.9684 112.548 84.5404C111.128 65.7335 112.585 56.8566 110.822 33.1276L116.589 31.291Z" fill="#FFB8A1"/>
<path d="M92.6879 243.921C92.9205 246.101 93.1164 247.423 93.1164 247.423C93.1164 247.423 116.699 257.39 123.372 249.346C123.372 249.346 125.086 247.191 125.955 244.595C125.98 244.521 126.016 244.326 126.016 244.326C126.543 242.109 126.628 238.95 127.033 234.334C126.959 235.583 126.494 241.056 126.653 245.501C126.702 246.958 126.824 248.305 127.045 249.346C127.045 249.346 135.812 256.729 157.006 248.513C157.006 248.513 157.288 247.448 157.63 245.55C158.696 239.624 160.336 225.604 155.708 211.022C153.541 204.177 149.978 197.198 144.333 190.868C144.333 190.868 142.876 190.856 140.525 190.758C138.187 190.66 134.942 190.501 131.342 190.194C130.338 190.109 129.322 190.023 128.281 189.913C124.461 189.521 120.408 188.982 116.699 188.235C114.029 187.709 111.532 187.048 109.413 186.276C109.413 186.276 100.463 194.308 95.5163 204.569C94.5245 206.638 93.6797 208.805 93.1164 210.997C90.5452 221.025 91.892 236.93 92.6879 243.921Z" fill="#105E99"/>
<path d="M95.5164 204.569C107.516 202.843 113.882 193.758 116.699 188.235C114.029 187.709 111.532 187.048 109.413 186.276C109.413 186.289 100.463 194.321 95.5164 204.569Z" fill="#0D527C"/>
<path d="M140.525 190.758C142.386 194.896 145.533 201.826 146.99 204.863C147.933 206.834 151.741 209.099 155.708 211.022C153.541 204.177 149.978 197.198 144.333 190.868C144.333 190.88 142.876 190.856 140.525 190.758Z" fill="#0D527C"/>
<path d="M127.045 234.298C130.987 221.907 131.367 199.769 131.342 190.207C130.338 190.121 129.322 190.035 128.281 189.925C124.29 210.532 129.187 209.332 129.187 209.332C129.738 216.678 127.179 233.355 127.045 234.298Z" fill="#0D527C"/>
<path d="M126.653 245.501C126.702 246.958 126.824 248.305 127.045 249.346C127.045 249.346 135.812 256.729 157.006 248.513C157.006 248.513 157.288 247.448 157.63 245.55C152.99 247.448 146.133 249.897 140.525 250.423C133.534 251.072 128.685 247.423 126.653 245.501Z" fill="#0D527C"/>
<path d="M92.6882 243.922C92.9208 246.101 93.1167 247.423 93.1167 247.423C93.1167 247.423 118.535 257.378 125.208 249.333C125.208 249.333 125.208 249.333 125.894 244.693C125.857 244.926 124.572 247.717 115.793 249.615C109.499 250.986 98.7367 246.701 92.6882 243.922Z" fill="#0D527C"/>
<path d="M109.132 187.464C110.05 190.746 140.085 193.109 145.301 191.994C145.301 191.994 146.097 190.439 146.44 189.301C146.611 188.713 146.672 188.248 146.452 188.15C146.452 188.15 128.22 189.227 109.732 182.995C109.732 182.995 109.352 183.289 109.083 183.999C108.826 184.709 108.679 185.811 109.132 187.464Z" fill="#105E99"/>
<path d="M109.132 187.464C110.05 190.746 140.085 193.109 145.301 191.994C145.301 191.994 146.097 190.439 146.44 189.301C146.44 189.301 129.029 190.599 109.083 184.011C108.826 184.709 108.679 185.811 109.132 187.464Z" fill="#0C476B"/>
<path d="M133.816 189.007C133.816 189.007 133.644 191.701 132.873 191.982C132.102 192.264 126.714 191.48 126.714 191.48C126.714 191.48 126.004 189.472 126.714 188.272L133.816 189.007Z" fill="#8BBDDB"/>
<path d="M120.972 186.289C120.972 186.289 119.748 188.076 119.539 191.113H117.801C117.801 191.113 117.593 187.66 118.927 185.983L120.972 186.289Z" fill="#105E99"/>
<path d="M140.685 188.958H138.848C138.848 188.958 138.64 190.794 137.526 193.256H139.106C139.106 193.268 141.407 191.603 140.685 188.958Z" fill="#105E99"/>
<path d="M135.15 125.693C137.782 128.582 141.419 133.578 142.521 143.055C142.521 143.055 145.974 135.353 145.974 130.872" fill="#FFB8A1"/>
<path d="M144.028 112.494C143.611 112.457 143.171 112.298 142.693 112.028C142.558 111.955 142.485 111.796 142.522 111.649L143.746 106.359C143.795 106.176 143.979 106.053 144.162 106.102C144.346 106.151 144.468 106.335 144.419 106.519L143.256 111.551C143.917 111.869 144.444 111.894 144.909 111.649C145.081 111.563 145.289 111.624 145.374 111.784C145.46 111.955 145.399 112.163 145.24 112.249C144.872 112.457 144.468 112.53 144.028 112.494Z" fill="#FF8A8A"/>
<path d="M143.049 115.959C141.077 115.763 139.657 114.808 139.645 114.783C139.486 114.673 139.449 114.465 139.559 114.306C139.669 114.147 139.877 114.11 140.036 114.22C140.196 114.33 143.795 116.755 147.395 114.024C147.542 113.914 147.762 113.938 147.885 114.085C147.995 114.232 147.971 114.453 147.824 114.575C146.146 115.849 144.457 116.106 143.049 115.959Z" fill="#FF8A8A"/>
<path d="M143.416 117.979C142.632 117.905 142.032 117.648 141.995 117.636C141.824 117.563 141.738 117.355 141.812 117.183C141.885 117.012 142.093 116.926 142.265 116.999C142.277 117.012 143.758 117.612 144.897 117.11C145.068 117.036 145.277 117.11 145.35 117.281C145.424 117.452 145.35 117.661 145.179 117.734C144.591 118.003 143.954 118.04 143.416 117.979Z" fill="#FF8A8A"/>
<g opacity="0.5">
<g opacity="0.5">
<path opacity="0.5" d="M139.558 108.416C139.473 109.261 137.856 109.788 135.934 109.604C134.012 109.42 132.518 108.576 132.604 107.731C132.689 106.886 134.306 106.359 136.228 106.543C138.15 106.739 139.644 107.584 139.558 108.416Z" fill="#FF8A8A"/>
</g>
</g>
<path opacity="0.5" d="M155.929 110.02C155.843 110.865 154.227 111.392 152.304 111.208C150.382 111.024 148.888 110.179 148.974 109.335C149.06 108.49 150.676 107.963 152.598 108.147C154.521 108.343 156.014 109.188 155.929 110.02Z" fill="#FF8A8A"/>
<path d="M140.159 104.89C140.085 105.821 139.669 106.555 139.228 106.519C138.787 106.482 138.494 105.698 138.567 104.768C138.64 103.837 139.057 103.102 139.498 103.139C139.938 103.164 140.232 103.96 140.159 104.89Z" fill="#3F2037"/>
<path d="M148.484 105.71C148.374 106.641 148.643 107.437 149.084 107.486C149.525 107.535 149.965 106.825 150.076 105.894C150.186 104.964 149.916 104.168 149.476 104.119C149.035 104.057 148.594 104.78 148.484 105.71Z" fill="#3F2037"/>
<path d="M135.751 102.441C135.751 102.441 136.449 101.119 138.457 100.115C140.991 98.8537 142.46 101.596 142.46 101.596C142.46 101.596 140.648 100.764 139.167 101.082C137.71 101.388 135.751 102.441 135.751 102.441Z" fill="#3F2037"/>
<path d="M153.37 104.155C153.37 104.155 152.941 102.723 151.166 101.352C148.925 99.6252 146.954 102.025 146.954 102.025C146.954 102.025 148.888 101.56 150.284 102.16C151.643 102.747 153.37 104.155 153.37 104.155Z" fill="#3F2037"/>
</g>
<g clip-path="url(#clip1_33_372)">
<path d="M121.983 20.6816C121.983 20.6816 121.983 20.6816 119.999 27.1832C118.028 33.697 117.073 32.9991 113.62 34.248C110.4 35.4234 107.608 29.7667 107.094 27.1342C106.653 24.9058 102.515 20.8775 102.637 18.9429C102.686 18.1593 103.249 18.5511 104.388 19.9714C105.723 21.6488 107.522 22.7141 107.522 22.7141C108.453 20.5224 103.004 14.9513 104.351 12.7474C105.012 11.6822 108.282 20.4367 109.739 20.5224C109.739 20.5224 110.155 19.751 108.894 15.3309C108.171 12.7964 107.412 10.1884 108.037 9.60067C109.188 8.54768 109.775 14.131 112.751 19.7632C112.751 19.7632 112.457 16.8981 112.016 14.2657C111.587 11.8536 110.951 9.66189 112.04 9.57618C112.922 9.50272 113.473 13.2739 113.914 15.6615C114.746 20.1061 116.314 23.1916 117.244 24.7099C117.685 25.4445 117.979 25.8118 117.979 25.8118C120.562 19.3592 121.983 20.6816 121.983 20.6816Z" fill="#FFB8A1"/>
<path d="M117.991 25.8113C117.991 25.8113 115.273 27.0725 114.771 29.3009C114.771 29.3009 113.742 25.9827 117.256 24.6971C117.685 25.444 117.991 25.8113 117.991 25.8113Z" fill="#E09D90"/>
<path d="M116.619 30.06C116.619 30.06 121.419 62.2007 123.109 74.6896C124.113 82.1585 122.264 119.613 122.264 119.613C122.264 119.613 117.819 136.314 112.946 135.432C109.334 134.771 108.563 129.592 108.257 120.85C107.951 112.107 113.289 92.7251 112.579 83.3094C111.159 64.5026 112.616 55.6256 110.853 31.8966L116.619 30.06Z" fill="#FFB8A1"/>
</g>
<mask id="mask1_33_372" style="mask-type:alpha" maskUnits="userSpaceOnUse" x="77" y="41" width="250" height="300">
<path d="M315.053 338.617H314.934L200.049 340.074C195.359 340.133 191.084 337.092 189.112 332.296L147.877 231.576L122.819 170.355L78.6631 62.5181C74.9807 53.5374 80.8134 43.1417 89.6259 43.0231L205.967 41.5489C209.116 41.5066 212.087 42.7605 214.398 44.9633C215.778 46.2935 216.913 47.9541 217.717 49.8858L230.068 80.6829L279.303 203.541L325.829 319.622C329.359 328.407 323.637 338.498 315.053 338.617Z" fill="white"/>
</mask>
<g mask="url(#mask1_33_372)">
<path d="M216.765 102.546C202.488 111.423 187.183 139.817 181.979 152.563C176.776 165.309 180.767 187.63 213.104 167.892C245.44 148.155 216.765 102.546 216.765 102.546Z" fill="#C7CFD1"/>
<path d="M300.539 104.97C300.539 104.97 332.374 131.809 336.047 154.473C339.72 177.137 319.003 183.626 302.571 155.587C286.152 127.548 300.539 104.97 300.539 104.97Z" fill="#C7CFD1"/>
<path d="M290.817 183.271C290.817 207.673 288.417 232.528 287.793 238.834C287.181 245.14 280.655 315.568 279.736 342.811C279.271 356.769 274.79 373.654 274.79 373.654C274.79 373.654 261.493 362.903 253.962 370.886L252.077 360.001L255.603 351.431C255.603 351.431 251.832 344.341 254.918 338.831C258.003 333.322 258.946 215.546 258.946 215.546L253.007 215.166L222.067 351.431V359.193C222.067 359.193 218.32 369.074 218.271 375.392L198.105 368.952L201.191 360.001L200.358 347.231L206.015 330.579C206.015 330.579 226.928 200.314 225.324 185.707L290.817 183.271Z" fill="#105E99"/>
<path d="M221.332 227.521C227.772 229.309 235.07 212.657 234.139 207.392C233.38 203.021 224.062 205.323 224.062 205.323L221.332 227.521Z" fill="#0F4C72"/>
<path d="M280.679 208.506C280.617 209.301 279.479 217.676 280.679 223.541C281.879 229.406 284.915 232.063 288.441 232.014C288.441 232.014 289.188 222.929 289.274 221.668C289.36 220.407 290.131 208.163 290.131 207.146C290.131 206.13 280.679 208.506 280.679 208.506Z" fill="#0F4C72"/>
<path d="M221.258 100.709C221.258 100.709 235.351 93.2894 256.056 93.7914C276.761 94.2811 290.633 99.2278 294.306 102.681C297.98 106.133 290.413 207.967 290.413 207.967C290.413 207.967 253.13 213.183 220.879 205.763C220.879 205.763 224.515 177.761 223.695 150.726C222.899 123.667 221.258 100.709 221.258 100.709Z" fill="#6F8593"/>
<path d="M248.416 83.6165C248.416 83.6165 250.375 91.7099 247.387 94.9423C247.387 94.9423 252.285 102.84 263.341 94.8688C263.341 94.8688 261.235 89.5427 263.341 86.0898L248.416 83.6165Z" fill="#FFB8A1"/>
<path d="M267.443 94.5504C267.443 94.5504 257.917 157.742 267.443 188.254C267.443 188.254 299.326 187.201 302.387 186.148C305.448 185.095 308.509 119.124 300.551 104.97C300.538 104.97 287.499 94.1586 267.443 94.5504Z" fill="#F24052"/>
<path d="M333.218 170.427C330.304 175.288 320.778 180.847 312.39 182.634C308.668 183.43 305.179 183.491 302.583 182.426C302.583 182.426 301.212 168.835 293.375 161.354C293.375 161.354 293.694 160.325 294.722 158.966C296.975 155.991 302.595 151.449 315.598 152.808C334.528 154.791 337.417 163.423 333.218 170.427Z" fill="#CFD8DC"/>
<path d="M277.85 95.3458C277.85 95.3458 272.598 103.023 265.912 106.561C265.912 106.561 265.717 105.484 265.643 103.843C265.619 103.415 265.606 102.937 265.606 102.423C265.606 101.578 265.643 100.648 265.753 99.6802C265.815 99.1415 265.888 98.5905 265.998 98.0273C266.672 94.3908 268.41 90.5951 272.512 88.8442C272.512 88.8442 273.602 89.1013 274.838 90.1176C275.132 90.3625 275.426 90.6441 275.72 90.9747C276.112 91.4277 276.504 91.9665 276.846 92.6154C277.055 92.995 277.238 93.399 277.397 93.852C277.581 94.3051 277.728 94.8071 277.85 95.3458Z" fill="#B72E48"/>
<path d="M277.397 93.8521C274.985 96.6315 271.067 100.476 265.643 103.843C265.618 103.415 265.606 102.937 265.606 102.423C270.883 99.0435 274.618 95.2479 276.846 92.6154C277.054 92.995 277.238 93.399 277.397 93.8521Z" fill="#CFD8DC"/>
<path d="M275.72 90.9748C273.516 93.4481 270.211 96.6928 265.754 99.6803C265.815 99.1416 265.888 98.5906 265.999 98.0274C269.917 95.2602 272.855 92.3584 274.839 90.1177C275.133 90.3626 275.426 90.6442 275.72 90.9748Z" fill="#CFD8DC"/>
<path d="M302.572 190.446C302.572 190.862 302.572 191.278 302.547 191.67C302.498 192.748 302.363 193.605 302.07 193.715C301.151 194.058 268.937 196.188 268.937 196.188L268.533 194.058L268.313 192.858L267.958 190.96L267.725 189.76L267.443 188.254C279.026 186.209 302.376 186.148 302.376 186.148C302.376 186.148 302.412 186.601 302.461 187.275C302.474 187.63 302.498 188.046 302.523 188.499C302.547 189.111 302.572 189.785 302.572 190.446Z" fill="#B72E48"/>
<path d="M302.523 188.499C289.568 188.364 275.169 189.98 267.958 190.96L267.725 189.76C274.961 188.781 289.422 187.152 302.461 187.275C302.474 187.63 302.498 188.046 302.523 188.499Z" fill="#CFD8DC"/>
<path d="M302.571 190.446C302.571 190.862 302.571 191.278 302.547 191.67C289.911 191.535 275.916 193.066 268.533 194.058L268.313 192.858C275.745 191.866 289.838 190.323 302.571 190.446Z" fill="#CFD8DC"/>
<path d="M244.534 94.5503C244.534 94.5503 249.346 157.913 240.016 188.511C240.016 188.511 213.814 187.458 211.341 186.393C208.867 185.328 209.529 116.737 216.765 102.546C216.765 102.546 228.029 94.1585 244.534 94.5503Z" fill="#F24052"/>
<path d="M233.38 95.3458C233.38 95.3458 238.632 103.023 245.318 106.561C245.318 106.561 245.514 105.484 245.587 103.843C245.612 103.415 245.624 102.937 245.624 102.423C245.624 101.578 245.587 100.648 245.477 99.6802C245.416 99.1415 245.342 98.5905 245.232 98.0273C244.559 94.3908 242.82 90.5951 238.718 88.8442C238.718 88.8442 237.628 89.1013 236.392 90.1176C236.098 90.3625 235.804 90.6441 235.51 90.9747C235.118 91.4277 234.727 91.9665 234.384 92.6154C234.176 92.995 233.992 93.399 233.833 93.852C233.649 94.3051 233.502 94.8071 233.38 95.3458Z" fill="#B72E48"/>
<path d="M233.833 93.8521C236.245 96.6315 240.163 100.476 245.587 103.843C245.612 103.415 245.624 102.937 245.624 102.423C240.347 99.0435 236.612 95.2479 234.384 92.6154C234.176 92.995 233.992 93.399 233.833 93.8521Z" fill="#CFD8DC"/>
<path d="M235.511 90.9748C237.715 93.4481 241.021 96.6928 245.477 99.6803C245.416 99.1416 245.343 98.5906 245.233 98.0274C241.314 95.2602 238.376 92.3584 236.392 90.1177C236.098 90.3626 235.805 90.6442 235.511 90.9748Z" fill="#CFD8DC"/>
<path d="M210.973 190.703C210.949 191.119 210.936 191.536 210.936 191.927C210.924 193.005 210.998 193.862 211.23 193.972C211.965 194.315 238.4 196.458 238.4 196.458L238.841 194.327L239.085 193.127L239.465 191.23L239.71 190.03L240.016 188.524C230.576 186.479 211.34 186.418 211.34 186.418C211.34 186.418 211.291 186.871 211.218 187.544C211.193 187.899 211.144 188.316 211.108 188.769C211.059 189.368 210.998 190.042 210.973 190.703Z" fill="#B72E48"/>
<path d="M211.108 188.756C221.785 188.622 233.563 190.238 239.465 191.23L239.71 190.03C233.796 189.05 221.968 187.409 211.218 187.532C211.194 187.875 211.145 188.303 211.108 188.756Z" fill="#CFD8DC"/>
<path d="M210.973 190.703C210.948 191.119 210.936 191.536 210.936 191.928C221.356 191.793 232.804 193.323 238.84 194.327L239.085 193.127C233 192.123 221.466 190.581 210.973 190.703Z" fill="#CFD8DC"/>
<path d="M194.126 110.639C201.876 112.647 206.565 152.098 202.084 161.342C197.603 170.586 191.138 176.598 180.082 167.88C169.025 159.162 174.119 114.068 181.269 111.006C184.612 109.586 194.126 110.639 194.126 110.639Z" fill="#CFD8DC"/>
<path d="M194.236 108.57C194.236 109.402 194.199 110.125 194.102 110.761C194.028 111.361 193.893 111.888 193.722 112.341C192.693 114.998 190.159 115.108 186.571 115.304C183.535 115.463 181.894 114.594 181.368 112.598C181.196 112.01 181.135 111.337 181.172 110.565C181.172 110.063 181.233 109.525 181.319 108.949C181.38 108.484 181.466 108.006 181.564 107.492C181.76 106.598 182.004 105.631 182.311 104.578C182.923 102.472 189.118 102.068 189.118 102.068C190.992 101.897 193.612 102.288 193.893 104.419C194.028 105.447 194.126 106.366 194.175 107.198C194.212 107.688 194.236 108.141 194.236 108.57Z" fill="#B72E48"/>
<path d="M178.723 91.1467C179.702 92.2609 181.319 96.5953 181.319 96.5953C182.004 100.244 182.396 102.252 183.669 103.917C184.931 105.595 184.269 108.533 184.269 108.533C184.269 108.533 189.216 111.08 193.379 107.933C193.379 107.933 192.938 105.007 193.379 104.187C194.236 102.534 196.979 101.64 197.921 98.2972C198.864 94.9423 201.668 91.1957 201.668 91.1957C201.668 91.1957 200.86 89.457 199.403 90.51C197.921 91.5875 196.979 94.2567 196.183 94.5383C196.024 94.5873 195.852 94.6362 195.693 94.6485C195.693 94.6485 195.681 94.6485 195.656 94.6607C195.044 94.7464 194.42 94.6118 194.04 94.2444C194.016 94.2322 193.967 94.2077 193.942 94.1587C191.102 89.6529 192.044 87.951 192.106 85.894C192.191 83.0411 192.228 77.4701 190.477 78.1435C188.738 78.8047 190.367 82.331 189.02 88.6244L188.212 88.5999C188.089 89.053 187.098 83.7268 186.461 79.7597C186.032 77.1027 184.588 77.1762 184.196 78.0455C183.792 78.9149 184.612 83.3472 184.735 85.343C184.833 86.6654 184.979 88.453 185.053 89.2733L184.6 89.555C181.857 84.7675 182.163 80.0658 180.559 79.9678C178.968 79.8699 180.143 86.3225 180.67 87.8898C180.914 88.6122 181.392 89.9468 181.674 91.3059C178.429 88.1224 178.821 85.2818 177.523 85.4777C176.2 85.7348 177.743 90.0325 178.723 91.1467Z" fill="#FFB8A1"/>
<path d="M190.881 98.6399C191.836 96.0197 195.228 94.8198 195.656 94.6851C195.044 94.7708 194.42 94.6361 194.04 94.2688C190.698 95.7503 190.881 98.6399 190.881 98.6399Z" fill="#D89988"/>
<path d="M194.235 108.57C191.836 109.782 187.44 109.978 184.869 109.978C184.587 109.978 184.33 109.978 184.097 109.965C182.934 109.941 182.016 109.537 181.318 108.949C181.379 108.484 181.465 108.006 181.563 107.492C182.114 108.141 182.922 108.717 184.122 108.741C187.856 108.802 192.521 108.423 194.174 107.198C194.211 107.688 194.235 108.141 194.235 108.57Z" fill="#CFD8DC"/>
<path d="M194.101 110.761C194.028 111.361 193.893 111.888 193.722 112.341C191.249 113.369 187.233 113.541 184.82 113.541C184.539 113.541 184.282 113.541 184.049 113.529C182.935 113.516 182.053 113.137 181.368 112.598C181.196 112.01 181.135 111.337 181.172 110.565C181.661 111.386 182.555 112.28 184.074 112.304C187.796 112.365 192.449 111.986 194.101 110.761Z" fill="#CFD8DC"/>
<path d="M225.47 158.134C225.47 158.134 228.335 160.987 227.907 162.48C227.478 163.974 217.377 175.924 216.152 179.598L212.785 177.749C212.785 177.749 217.964 161.77 225.47 158.134Z" fill="#CFD8DC"/>
<path d="M312.39 182.634C308.668 183.43 305.179 183.491 302.583 182.426C302.583 182.426 301.212 168.835 293.375 161.354C293.375 161.354 293.694 160.325 294.722 158.966C299.191 162.26 314.888 174.504 312.39 182.634Z" fill="#B5C4C9"/>
<path d="M291.05 158.134C291.05 158.134 303.587 169.729 302.522 183.234C302.522 183.234 297.074 185.242 296.816 183.234C296.559 181.226 293.584 169.472 287.744 162.48C286.838 161.391 291.05 158.134 291.05 158.134Z" fill="#CFD8DC"/>
<path d="M249.028 88.22C249.003 90.4239 248.893 91.4034 248.734 92.1871C248.734 92.1871 260.794 90.6443 262.619 87.9873C264.443 85.3426 249.15 87.5833 249.089 87.1547C249.015 86.7262 249.028 87.7302 249.028 88.22Z" fill="#D89988"/>
<path d="M270.075 69.1072C270.075 69.1072 274.238 64.9565 274.74 69.8052C275.328 75.4252 270.222 77.6903 269.23 75.9027C268.239 74.1151 270.075 69.1072 270.075 69.1072Z" fill="#FFB8A1"/>
<path d="M240.959 69.3888C240.959 69.3888 236.796 65.2381 236.294 70.0867C235.706 75.7068 240.812 77.9719 241.804 76.1843C242.795 74.4089 240.959 69.3888 240.959 69.3888Z" fill="#FFB8A1"/>
<path d="M255.958 89.4568C265.19 89.4568 270.394 83.4327 270.394 65.3483C270.394 56.0183 265.643 50.3003 255.309 50.3003C244.975 50.3003 240.616 56.0183 240.616 65.3483C240.628 84.7796 246.42 89.4568 255.958 89.4568Z" fill="#FFB8A1"/>
<path d="M266.291 54.7327C266.291 54.7327 259.876 54.2919 245.77 53.2756C245.77 53.2756 240.616 58.6508 240.983 71.8621C240.983 71.8621 232.73 48.0474 256.827 48.0474C280.923 48.0474 270.075 71.3356 270.075 71.3356C270.075 71.3356 270.785 59.2018 266.291 54.7327Z" fill="#132630"/>
<path d="M244.033 55.9449C244.033 55.9449 239.992 52.4431 240.629 48.0597C241.265 43.6763 250.657 40.3459 258.823 42.0111C258.823 42.0111 263.17 39.7215 268.961 43.4314C274.741 47.1414 278.622 58.161 273.516 64.9932C273.516 64.9932 274.716 53.3736 268.055 57.304C268.043 57.304 257.611 51.6717 244.033 55.9449Z" fill="#12303F"/>
<path d="M255.872 76.9677C255.394 76.9677 254.868 76.8453 254.28 76.5881C254.121 76.5147 254.023 76.3433 254.048 76.1718L254.856 69.9518C254.88 69.7315 255.088 69.5845 255.309 69.609C255.529 69.6335 255.676 69.8417 255.652 70.062L254.88 75.9759C255.676 76.2698 256.288 76.2453 256.79 75.9025C256.974 75.78 257.219 75.829 257.341 76.0127C257.464 76.1963 257.415 76.4412 257.231 76.5636C256.839 76.8208 256.386 76.9677 255.872 76.9677Z" fill="#FF8A8A"/>
<path d="M255.137 81.0695C252.847 81.0695 251.109 80.1267 251.084 80.1144C250.888 80.0043 250.827 79.7594 250.925 79.5757C251.035 79.3798 251.28 79.3186 251.464 79.4165C251.66 79.5267 256.08 81.9021 259.9 78.3635C260.059 78.2166 260.316 78.2289 260.463 78.388C260.61 78.5472 260.598 78.8043 260.439 78.9513C258.688 80.592 256.766 81.0695 255.137 81.0695Z" fill="#FF8A8A"/>
<path d="M255.787 83.3469C254.881 83.3469 254.158 83.1265 254.109 83.1142C253.901 83.053 253.779 82.8204 253.852 82.6122C253.913 82.4041 254.146 82.2816 254.354 82.3551C254.366 82.3551 256.142 82.8938 257.391 82.1959C257.586 82.0857 257.831 82.1592 257.929 82.3428C258.039 82.5387 257.966 82.7836 257.782 82.8816C257.133 83.2367 256.411 83.3469 255.787 83.3469Z" fill="#FF8A8A"/>
<g opacity="0.5">
<g opacity="0.5">
<path opacity="0.5" d="M250.277 72.7925C250.277 73.772 248.465 74.5679 246.236 74.5679C244.008 74.5679 242.196 73.772 242.196 72.7925C242.196 71.813 244.008 71.0171 246.236 71.0171C248.477 71.0171 250.277 71.813 250.277 72.7925Z" fill="#FF8A8A"/>
</g>
</g>
<path opacity="0.5" d="M269.279 72.7925C269.279 73.772 267.467 74.5679 265.239 74.5679C263.01 74.5679 261.198 73.772 261.198 72.7925C261.198 71.813 263.01 71.0171 265.239 71.0171C267.467 71.0171 269.279 71.813 269.279 72.7925Z" fill="#FF8A8A"/>
<path d="M250.558 68.654C250.583 69.7315 250.179 70.6253 249.664 70.6253C249.15 70.6375 248.722 69.7682 248.709 68.6785C248.685 67.601 249.089 66.7072 249.603 66.7072C250.117 66.7072 250.546 67.5765 250.558 68.654Z" fill="#3F2037"/>
<path d="M260.231 68.654C260.206 69.7315 260.61 70.6253 261.125 70.6253C261.639 70.6375 262.067 69.7682 262.08 68.6785C262.104 67.601 261.7 66.7072 261.186 66.7072C260.672 66.7072 260.243 67.5765 260.231 68.654Z" fill="#3F2037"/>
<path d="M245.22 66.3276C245.22 66.3276 245.869 64.7236 248.061 63.3523C250.84 61.6259 252.836 64.6012 252.836 64.6012C252.836 64.6012 250.656 63.8421 248.991 64.3808C247.363 64.9073 245.22 66.3276 245.22 66.3276Z" fill="#3F2037"/>
<path d="M265.668 66.3276C265.668 66.3276 265.019 64.7236 262.827 63.3523C260.048 61.6259 258.052 64.6012 258.052 64.6012C258.052 64.6012 260.231 63.8421 261.896 64.3808C263.537 64.9073 265.668 66.3276 265.668 66.3276Z" fill="#3F2037"/>
</g>
<path d="M216.764 102.546C202.488 111.423 187.183 139.817 181.979 152.563C176.775 165.309 180.767 187.63 213.103 167.892C245.44 148.155 216.764 102.546 216.764 102.546Z" fill="#C7CFD1"/>
<path d="M300.55 104.97C300.55 104.97 332.385 131.809 336.058 154.473C339.731 177.137 319.014 183.626 302.583 155.587C286.164 127.548 300.55 104.97 300.55 104.97Z" fill="#C7CFD1"/>
<path d="M290.828 183.283C290.828 207.686 288.429 232.541 287.804 238.847C287.657 240.389 287.143 245.814 286.457 253.503C284.327 277.134 257.941 288.46 258.492 253.515C258.822 232.333 258.957 215.558 258.957 215.558L253.019 215.179L244.472 252.805C244.472 252.805 212.736 288.778 218.258 249.879C222.482 220.101 226.021 192.038 225.335 185.695L290.828 183.283Z" fill="#105E99"/>
<path d="M221.331 227.521C227.772 229.309 235.069 212.657 234.139 207.392C233.379 203.021 224.062 205.322 224.062 205.322L221.331 227.521Z" fill="#0F4C72"/>
<path d="M280.678 208.518C280.617 209.314 279.478 217.689 280.678 223.554C281.878 229.419 284.915 232.076 288.441 232.027C288.441 232.027 289.188 222.942 289.274 221.68C289.359 220.419 290.131 208.175 290.131 207.159C290.143 206.118 280.678 208.518 280.678 208.518Z" fill="#0F4C72"/>
<path d="M221.271 100.709C221.271 100.709 235.363 93.2892 256.068 93.7912C276.773 94.2809 290.645 99.2275 294.319 102.68C297.992 106.121 290.425 207.967 290.425 207.967C290.425 207.967 253.142 213.183 220.891 205.763C220.891 205.763 224.527 177.761 223.707 150.726C222.899 123.667 221.271 100.709 221.271 100.709Z" fill="#9DBED2"/>
<path d="M248.428 83.6285C248.428 83.6285 250.387 91.7219 247.399 94.9543C247.399 94.9543 252.297 102.852 263.353 94.8808C263.353 94.8808 261.247 89.5547 263.353 86.1018L248.428 83.6285Z" fill="#FFB8A1"/>
<path d="M267.442 94.5503C267.442 94.5503 257.916 157.742 267.442 188.254C267.442 188.254 299.314 187.201 302.375 186.148C305.436 185.095 308.497 119.124 300.538 104.97C300.55 104.97 287.498 94.1584 267.442 94.5503Z" fill="#248F5C"/>
<path d="M333.217 170.427C330.303 175.288 320.777 180.846 312.39 182.634C308.668 183.43 305.178 183.491 302.582 182.426C302.582 182.426 301.211 168.835 293.375 161.354C293.375 161.354 293.693 160.325 294.722 158.966C296.975 155.991 302.595 151.448 315.598 152.808C334.527 154.791 337.417 163.423 333.217 170.427Z" fill="#CFD8DC"/>
<path d="M277.863 95.3461C277.863 95.3461 272.611 103.023 265.925 106.562C265.925 106.562 265.729 105.484 265.656 103.844C265.632 103.415 265.619 102.937 265.619 102.423C265.619 101.578 265.656 100.648 265.766 99.6805C265.827 99.1418 265.901 98.5908 266.011 98.0276C266.685 94.3911 268.423 90.5954 272.525 88.8445C272.525 88.8445 273.615 89.1017 274.851 90.1179C275.145 90.3628 275.439 90.6444 275.733 90.975C276.125 91.428 276.517 91.9668 276.859 92.6157C277.067 92.9953 277.251 93.3993 277.41 93.8524C277.594 94.3054 277.741 94.8074 277.863 95.3461Z" fill="#236C49"/>
<path d="M277.409 93.8524C274.997 96.6319 271.079 100.476 265.655 103.844C265.63 103.415 265.618 102.938 265.618 102.423C270.895 99.0439 274.63 95.2483 276.858 92.6158C277.066 92.9954 277.25 93.3994 277.409 93.8524Z" fill="#CFD8DC"/>
<path d="M275.732 90.9752C273.528 93.4485 270.222 96.6931 265.765 99.6807C265.826 99.142 265.9 98.591 266.01 98.0278C269.928 95.2606 272.867 92.3588 274.85 90.1181C275.144 90.363 275.438 90.6446 275.732 90.9752Z" fill="#CFD8DC"/>
<path d="M302.583 190.446C302.583 190.862 302.583 191.278 302.558 191.67C302.509 192.748 302.375 193.605 302.081 193.715C301.162 194.058 268.948 196.188 268.948 196.188L268.544 194.058L268.324 192.858L267.969 190.96L267.736 189.76L267.454 188.254C279.037 186.209 302.387 186.148 302.387 186.148C302.387 186.148 302.424 186.601 302.473 187.275C302.485 187.63 302.509 188.046 302.534 188.499C302.558 189.111 302.583 189.785 302.583 190.446Z" fill="#236C49"/>
<path d="M302.534 188.499C289.58 188.364 275.181 189.981 267.969 190.96L267.736 189.76C274.973 188.781 289.433 187.152 302.473 187.275C302.485 187.63 302.509 188.046 302.534 188.499Z" fill="#CFD8DC"/>
<path d="M302.583 190.446C302.583 190.862 302.583 191.278 302.558 191.67C289.922 191.536 275.927 193.066 268.544 194.058L268.324 192.858C275.756 191.866 289.849 190.323 302.583 190.446Z" fill="#CFD8DC"/>
<path d="M244.534 94.5503C244.534 94.5503 249.346 157.913 240.016 188.511C240.016 188.511 213.814 187.458 211.34 186.393C208.867 185.34 209.528 116.737 216.764 102.546C216.764 102.546 228.041 94.1585 244.534 94.5503Z" fill="#248F5C"/>
<path d="M233.379 95.3461C233.379 95.3461 238.632 103.023 245.317 106.562C245.317 106.562 245.513 105.484 245.587 103.844C245.611 103.415 245.623 102.937 245.623 102.423C245.623 101.578 245.587 100.648 245.477 99.6805C245.415 99.1418 245.342 98.5908 245.232 98.0276C244.558 94.3911 242.82 90.5954 238.718 88.8445C238.718 88.8445 237.628 89.1017 236.391 90.1179C236.098 90.3628 235.804 90.6444 235.51 90.975C235.118 91.428 234.726 91.9668 234.383 92.6157C234.175 92.9953 233.992 93.3993 233.832 93.8524C233.649 94.3054 233.502 94.8074 233.379 95.3461Z" fill="#236C49"/>
<path d="M233.833 93.8524C236.245 96.6319 240.163 100.476 245.587 103.844C245.611 103.415 245.624 102.938 245.624 102.423C240.346 99.0439 236.612 95.2483 234.384 92.6158C234.175 92.9954 233.992 93.3994 233.833 93.8524Z" fill="#CFD8DC"/>
<path d="M235.51 90.9752C237.714 93.4485 241.02 96.6931 245.477 99.6807C245.416 99.142 245.342 98.591 245.232 98.0278C241.314 95.2606 238.375 92.3588 236.392 90.1181C236.098 90.363 235.804 90.6446 235.51 90.9752Z" fill="#CFD8DC"/>
<path d="M210.973 190.703C210.948 191.119 210.936 191.536 210.936 191.927C210.924 193.005 210.997 193.862 211.23 193.972C211.964 194.315 238.399 196.458 238.399 196.458L238.84 194.327L239.085 193.127L239.465 191.23L239.709 190.03L240.016 188.524C230.575 186.479 211.34 186.418 211.34 186.418C211.34 186.418 211.291 186.871 211.217 187.544C211.193 187.899 211.156 188.315 211.107 188.768C211.058 189.368 211.009 190.042 210.973 190.703Z" fill="#236C49"/>
<path d="M211.107 188.756C221.784 188.621 233.563 190.238 239.465 191.229L239.71 190.03C233.796 189.05 221.968 187.409 211.218 187.532C211.193 187.887 211.156 188.303 211.107 188.756Z" fill="#CFD8DC"/>
<path d="M210.972 190.703C210.948 191.119 210.936 191.536 210.936 191.927C221.355 191.793 232.804 193.323 238.84 194.327L239.085 193.127C233 192.136 221.466 190.581 210.972 190.703Z" fill="#CFD8DC"/>
<path d="M194.125 110.651C201.876 112.659 206.565 152.11 202.084 161.354C197.59 170.61 191.137 176.61 180.081 167.892C169.025 159.174 174.118 114.08 181.269 111.019C184.624 109.586 194.125 110.651 194.125 110.651Z" fill="#CFD8DC"/>
<path d="M194.248 108.57C194.248 109.402 194.211 110.125 194.113 110.761C194.04 111.361 193.905 111.888 193.733 112.341C192.705 114.998 190.17 115.108 186.583 115.304C183.546 115.463 181.906 114.594 181.379 112.598C181.208 112.01 181.147 111.337 181.183 110.566C181.183 110.064 181.245 109.525 181.33 108.949C181.391 108.484 181.477 108.007 181.575 107.492C181.771 106.598 182.016 105.631 182.322 104.578C182.934 102.472 189.13 102.068 189.13 102.068C191.003 101.897 193.623 102.289 193.905 104.419C194.04 105.448 194.138 106.366 194.187 107.198C194.223 107.688 194.248 108.141 194.248 108.57Z" fill="#236C49"/>
<path d="M178.722 91.1465C179.702 92.2607 181.318 96.5951 181.318 96.5951C182.004 100.244 182.395 102.252 183.669 103.917C184.93 105.594 184.269 108.533 184.269 108.533C184.269 108.533 189.215 111.08 193.378 107.933C193.378 107.933 192.938 105.007 193.378 104.186C194.235 102.533 196.978 101.64 197.921 98.297C198.864 94.9421 201.668 91.1954 201.668 91.1954C201.668 91.1954 200.859 89.4568 199.402 90.5098C197.921 91.5872 196.978 94.2564 196.182 94.5381C196.023 94.587 195.852 94.636 195.692 94.6483C195.692 94.6483 195.68 94.6483 195.656 94.6605C195.044 94.7462 194.419 94.6115 194.04 94.2442C194.015 94.232 193.966 94.2075 193.942 94.1585C191.101 89.6527 192.044 87.9508 192.105 85.8938C192.191 83.0409 192.227 77.4698 190.477 78.1433C188.738 78.8044 190.366 82.3307 189.019 88.6242L188.211 88.5997C188.089 89.0527 187.097 83.7265 186.46 79.7595C186.032 77.1025 184.587 77.176 184.195 78.0453C183.791 78.9146 184.612 83.347 184.734 85.3428C184.832 86.6651 184.979 88.4528 185.052 89.2731L184.599 89.5547C181.857 84.7673 182.163 80.0656 180.559 79.9676C178.967 79.8697 180.143 86.3223 180.669 87.8895C180.914 88.6119 181.391 89.9465 181.673 91.3056C178.428 88.1222 178.82 85.2815 177.522 85.4775C176.2 85.7346 177.743 90.0322 178.722 91.1465Z" fill="#FFB8A1"/>
<path d="M190.881 98.6399C191.836 96.0196 195.227 94.8197 195.656 94.685C195.044 94.7707 194.419 94.6361 194.04 94.2687C190.709 95.7625 190.881 98.6399 190.881 98.6399Z" fill="#D89988"/>
<path d="M194.248 108.57C191.848 109.782 187.452 109.978 184.881 109.978C184.599 109.978 184.342 109.978 184.11 109.966C182.946 109.941 182.028 109.537 181.33 108.949C181.391 108.484 181.477 108.007 181.575 107.492C182.126 108.141 182.934 108.717 184.134 108.741C187.869 108.803 192.534 108.423 194.187 107.199C194.223 107.688 194.248 108.141 194.248 108.57Z" fill="#CFD8DC"/>
<path d="M194.113 110.761C194.04 111.361 193.905 111.888 193.733 112.341C191.26 113.369 187.244 113.541 184.832 113.541C184.55 113.541 184.293 113.541 184.061 113.529C182.946 113.516 182.065 113.137 181.379 112.598C181.208 112.01 181.147 111.337 181.183 110.566C181.673 111.386 182.567 112.28 184.085 112.304C187.807 112.365 192.46 111.986 194.113 110.761Z" fill="#CFD8DC"/>
<path d="M225.47 158.134C225.47 158.134 228.335 160.987 227.906 162.48C227.478 163.974 217.376 175.924 216.152 179.598L212.785 177.749C212.785 177.749 217.964 161.783 225.47 158.134Z" fill="#CFD8DC"/>
<path d="M312.39 182.634C308.668 183.43 305.178 183.491 302.582 182.426C302.582 182.426 301.211 168.835 293.375 161.354C293.375 161.354 293.693 160.325 294.722 158.966C299.191 162.26 314.888 174.504 312.39 182.634Z" fill="#B5C4C9"/>
<path d="M291.061 158.134C291.061 158.134 303.599 169.729 302.534 183.234C302.534 183.234 297.085 185.242 296.828 183.234C296.571 181.226 293.596 169.472 287.755 162.48C286.849 161.403 291.061 158.134 291.061 158.134Z" fill="#CFD8DC"/>
<path d="M249.027 88.2201C249.003 90.424 248.893 91.4035 248.733 92.1871C248.733 92.1871 260.794 90.6444 262.618 87.9874C264.443 85.3427 249.15 87.5834 249.088 87.1548C249.027 86.7385 249.027 87.7303 249.027 88.2201Z" fill="#D89988"/>
<path d="M270.087 69.1071C270.087 69.1071 274.25 64.9564 274.752 69.805C275.34 75.4251 270.234 77.6902 269.243 75.9026C268.251 74.1149 270.087 69.1071 270.087 69.1071Z" fill="#FFB8A1"/>
<path d="M240.959 69.401C240.959 69.401 236.796 65.2503 236.282 70.0989C235.694 75.719 240.8 77.9841 241.792 76.1965C242.796 74.4088 240.959 69.401 240.959 69.401Z" fill="#FFB8A1"/>
<path d="M255.958 89.469C265.19 89.469 270.394 83.4449 270.394 65.3604C270.394 56.0305 265.643 50.3125 255.309 50.3125C244.975 50.3125 240.616 56.0305 240.616 65.3604C240.628 84.7795 246.432 89.469 255.958 89.469Z" fill="#FFB8A1"/>
<path d="M266.304 54.7327C266.304 54.7327 259.888 54.2919 245.783 53.2756C245.783 53.2756 240.629 58.6508 240.996 71.8621C240.996 71.8621 232.743 48.0474 256.84 48.0474C280.936 48.0474 270.088 71.3356 270.088 71.3356C270.088 71.3356 270.786 59.2018 266.304 54.7327Z" fill="#132630"/>
<path d="M244.032 55.9447C244.032 55.9447 239.992 52.4429 240.628 48.0595C241.265 43.6762 250.656 40.3458 258.823 42.011C258.823 42.011 263.17 39.7213 268.961 43.4313C274.74 47.1412 278.622 58.1609 273.516 64.9931C273.516 64.9931 274.716 53.3735 268.055 57.3038C268.043 57.3161 257.611 51.6838 244.032 55.9447Z" fill="#12303F"/>
<path d="M255.884 76.9679C255.407 76.9679 254.88 76.8454 254.292 76.5883C254.133 76.5148 254.035 76.3434 254.06 76.172L254.868 69.952C254.892 69.7316 255.101 69.5847 255.321 69.6092C255.541 69.6337 255.688 69.8418 255.664 70.0622L254.892 75.9761C255.688 76.27 256.3 76.2455 256.802 75.9026C256.986 75.7802 257.231 75.8292 257.353 76.0128C257.476 76.1965 257.427 76.4414 257.243 76.5638C256.839 76.8332 256.386 76.9679 255.884 76.9679Z" fill="#FF8A8A"/>
<path d="M255.137 81.0695C252.847 81.0695 251.108 80.1268 251.084 80.1145C250.888 80.0043 250.827 79.7594 250.925 79.5758C251.035 79.3799 251.28 79.3186 251.463 79.4166C251.659 79.5268 256.079 81.9021 259.899 78.3636C260.059 78.2167 260.316 78.2289 260.463 78.3881C260.61 78.5473 260.597 78.8044 260.438 78.9513C258.687 80.592 256.777 81.0695 255.137 81.0695Z" fill="#FF8A8A"/>
<path d="M255.786 83.347C254.88 83.347 254.158 83.1266 254.109 83.1144C253.9 83.0531 253.778 82.8205 253.851 82.6123C253.913 82.4042 254.145 82.2818 254.353 82.3552C254.366 82.3552 256.141 82.894 257.39 82.196C257.586 82.0859 257.831 82.1593 257.929 82.343C258.039 82.5389 257.965 82.7838 257.782 82.8817C257.133 83.249 256.423 83.347 255.786 83.347Z" fill="#FF8A8A"/>
<g opacity="0.5">
<g opacity="0.5">
<path opacity="0.5" d="M250.276 72.7926C250.276 73.7722 248.464 74.568 246.236 74.568C244.007 74.568 242.195 73.7722 242.195 72.7926C242.195 71.8131 244.007 71.0173 246.236 71.0173C248.476 71.0173 250.276 71.8131 250.276 72.7926Z" fill="#FF8A8A"/>
</g>
</g>
<path opacity="0.5" d="M269.279 72.7926C269.279 73.7722 267.467 74.568 265.238 74.568C263.01 74.568 261.198 73.7722 261.198 72.7926C261.198 71.8131 263.01 71.0173 265.238 71.0173C267.479 71.0173 269.279 71.8131 269.279 72.7926Z" fill="#FF8A8A"/>
<path d="M250.57 68.6663C250.595 69.7438 250.191 70.6376 249.677 70.6376C249.162 70.6498 248.734 69.7805 248.722 68.6908C248.697 67.6133 249.101 66.7195 249.615 66.7195C250.117 66.7072 250.546 67.5766 250.57 68.6663Z" fill="#3F2037"/>
<path d="M260.231 68.6663C260.206 69.7438 260.61 70.6376 261.125 70.6376C261.639 70.6499 262.067 69.7805 262.08 68.6908C262.104 67.6133 261.7 66.7195 261.186 66.7195C260.684 66.7073 260.255 67.5766 260.231 68.6663Z" fill="#3F2037"/>
<path d="M245.231 66.34C245.231 66.34 245.88 64.736 248.072 63.3647C250.852 61.6382 252.847 64.6136 252.847 64.6136C252.847 64.6136 250.668 63.8544 249.003 64.3932C247.362 64.9074 245.231 66.34 245.231 66.34Z" fill="#3F2037"/>
<path d="M265.679 66.34C265.679 66.34 265.03 64.736 262.839 63.3647C260.059 61.6382 258.064 64.6136 258.064 64.6136C258.064 64.6136 260.243 63.8544 261.908 64.3932C263.537 64.9074 265.679 66.34 265.679 66.34Z" fill="#3F2037"/>
<defs>
<clipPath id="clip0_33_372">
<rect width="275.491" height="322.019" fill="white" transform="translate(59.7827 38.8634)"/>
</clipPath>
<clipPath id="clip1_33_372">
<rect width="20.7659" height="125.991" fill="white" transform="translate(102.637 9.47772)"/>
</clipPath>
</defs>
</svg>
