<svg width="22" height="23" viewBox="0 0 22 23" fill="none" xmlns="http://www.w3.org/2000/svg">
<g clip-path="url(#clip0_717_689)">
<path fill-rule="evenodd" clip-rule="evenodd" d="M10.0833 5.08333C10.0833 4.5971 9.89018 4.13079 9.54636 3.78697C9.20255 3.44315 8.73623 3.25 8.25 3.25H4.58333C4.0971 3.25 3.63079 3.44315 3.28697 3.78697C2.94315 4.13079 2.75 4.5971 2.75 5.08333V8.75C2.75 9.23623 2.94315 9.70255 3.28697 10.0464C3.63079 10.3902 4.0971 10.5833 4.58333 10.5833H8.25C8.73623 10.5833 9.20255 10.3902 9.54636 10.0464C9.89018 9.70255 10.0833 9.23623 10.0833 8.75V5.08333ZM4.58333 5.08333H8.25V8.75H4.58333V5.08333ZM19.25 5.08333C19.25 4.5971 19.0568 4.13079 18.713 3.78697C18.3692 3.44315 17.9029 3.25 17.4167 3.25H13.75C13.2638 3.25 12.7975 3.44315 12.4536 3.78697C12.1098 4.13079 11.9167 4.5971 11.9167 5.08333V8.75C11.9167 9.23623 12.1098 9.70255 12.4536 10.0464C12.7975 10.3902 13.2638 10.5833 13.75 10.5833H17.4167C17.9029 10.5833 18.3692 10.3902 18.713 10.0464C19.0568 9.70255 19.25 9.23623 19.25 8.75V5.08333ZM13.75 5.08333H17.4167V8.75H13.75V5.08333ZM8.25 12.4167C8.73623 12.4167 9.20255 12.6098 9.54636 12.9536C9.89018 13.2975 10.0833 13.7638 10.0833 14.25V17.9167C10.0833 18.4029 9.89018 18.8692 9.54636 19.213C9.20255 19.5568 8.73623 19.75 8.25 19.75H4.58333C4.0971 19.75 3.63079 19.5568 3.28697 19.213C2.94315 18.8692 2.75 18.4029 2.75 17.9167V14.25C2.75 13.7638 2.94315 13.2975 3.28697 12.9536C3.63079 12.6098 4.0971 12.4167 4.58333 12.4167H8.25ZM8.25 14.25H4.58333V17.9167H8.25V14.25ZM11.9167 16.0833C11.9167 15.8402 12.0132 15.6071 12.1852 15.4352C12.3571 15.2632 12.5902 15.1667 12.8333 15.1667H14.6667V13.3333C14.6667 13.0902 14.7632 12.8571 14.9352 12.6852C15.1071 12.5132 15.3402 12.4167 15.5833 12.4167C15.8264 12.4167 16.0596 12.5132 16.2315 12.6852C16.4034 12.8571 16.5 13.0902 16.5 13.3333V15.1667H18.3333C18.5764 15.1667 18.8096 15.2632 18.9815 15.4352C19.1534 15.6071 19.25 15.8402 19.25 16.0833C19.25 16.3264 19.1534 16.5596 18.9815 16.7315C18.8096 16.9034 18.5764 17 18.3333 17H16.5V18.8333C16.5 19.0764 16.4034 19.3096 16.2315 19.4815C16.0596 19.6534 15.8264 19.75 15.5833 19.75C15.3402 19.75 15.1071 19.6534 14.9352 19.4815C14.7632 19.3096 14.6667 19.0764 14.6667 18.8333V17H12.8333C12.5902 17 12.3571 16.9034 12.1852 16.7315C12.0132 16.5596 11.9167 16.3264 11.9167 16.0833Z" fill="black"/>
</g>
<defs>
<clipPath id="clip0_717_689">
<rect width="22" height="22" fill="white" transform="translate(0 0.5)"/>
</clipPath>
</defs>
</svg>
