<svg width="11" height="10" viewBox="0 0 11 10" fill="none" xmlns="http://www.w3.org/2000/svg">
<path d="M10.1742 1.39876C10.0816 1.23802 9.94796 1.10479 9.7869 1.01275C9.62584 0.920705 9.4432 0.873154 9.25771 0.874974L1.74247 0.874973C1.55698 0.873153 1.37434 0.920704 1.21328 1.01275C1.05222 1.10479 0.918541 1.23802 0.825951 1.39876C0.735603 1.5534 0.68799 1.72928 0.68799 1.90837C0.68799 2.08747 0.735603 2.26334 0.82595 2.41798L4.58271 8.94364C4.6766 9.10352 4.81065 9.23608 4.97157 9.32819C5.13248 9.4203 5.31468 9.46875 5.50009 9.46875C5.6855 9.46875 5.86769 9.4203 6.02861 9.32819C6.18952 9.23608 6.32357 9.10352 6.41747 8.94364L10.1751 2.41798C10.2653 2.26327 10.3128 2.08735 10.3126 1.90826C10.3125 1.72916 10.2647 1.55332 10.1742 1.39876Z" fill="black"/>
</svg>
