<svg width="20" height="15" viewBox="0 0 20 15" fill="none" xmlns="http://www.w3.org/2000/svg">
<path d="M1.00033 15H19.0003C19.1826 14.9994 19.3612 14.9491 19.517 14.8546C19.6728 14.7601 19.7999 14.6248 19.8845 14.4634C19.9692 14.302 20.0082 14.1206 19.9974 13.9387C19.9867 13.7568 19.9265 13.5812 19.8233 13.431L10.8233 0.430983C10.4503 -0.108017 9.55233 -0.108017 9.17833 0.430983L0.17833 13.431C0.0741544 13.5809 0.0130637 13.7566 0.00169478 13.9388C-0.00967418 14.121 0.0291135 14.3029 0.113844 14.4646C0.198574 14.6263 0.326005 14.7617 0.482294 14.8561C0.638582 14.9505 0.81775 15.0003 1.00033 15Z" fill="#15521D"/>
</svg>
