<svg width="11" height="12" viewBox="0 0 11 12" fill="none" xmlns="http://www.w3.org/2000/svg">
<g id="ph:triangle-fill" clip-path="url(#clip0_2063_436)">
<path id="Vector" d="M10.1742 2.39876C10.0816 2.23802 9.94796 2.10479 9.7869 2.01275C9.62584 1.92071 9.4432 1.87315 9.25771 1.87497L1.74247 1.87497C1.55698 1.87315 1.37434 1.9207 1.21328 2.01275C1.05222 2.10479 0.918541 2.23802 0.825951 2.39876C0.735603 2.5534 0.68799 2.72928 0.68799 2.90837C0.68799 3.08747 0.735603 3.26334 0.82595 3.41798L4.58271 9.94364C4.6766 10.1035 4.81065 10.2361 4.97157 10.3282C5.13248 10.4203 5.31468 10.4688 5.50009 10.4688C5.6855 10.4688 5.86769 10.4203 6.02861 10.3282C6.18952 10.2361 6.32357 10.1035 6.41747 9.94364L10.1751 3.41798C10.2653 3.26327 10.3128 3.08735 10.3126 2.90826C10.3125 2.72916 10.2647 2.55332 10.1742 2.39876Z" fill="black"/>
</g>
<defs>
<clipPath id="clip0_2063_436">
<rect width="11" height="11" fill="white" transform="matrix(1 1.74846e-07 1.74846e-07 -1 0 11.5)"/>
</clipPath>
</defs>
</svg>
