<svg width="20" height="15" viewBox="0 0 20 15" fill="none" xmlns="http://www.w3.org/2000/svg">
<path d="M18.9994 -0.000103084L0.999423 -0.000104658C0.817182 0.000466577 0.638547 0.05073 0.482747 0.145273C0.326946 0.239817 0.199882 0.37506 0.115228 0.536448C0.0305722 0.697835 -0.00846358 0.879255 0.00232055 1.06118C0.0131028 1.2431 0.0732968 1.41864 0.176423 1.5689L9.17642 14.5689C9.54942 15.1079 10.4474 15.1079 10.8214 14.5689L19.8214 1.5689C19.9256 1.41895 19.9867 1.24333 19.9981 1.0611C20.0094 0.878876 19.9706 0.697019 19.8859 0.53529C19.8012 0.37356 19.6738 0.238143 19.5175 0.143753C19.3612 0.0493631 19.182 -0.000391078 18.9994 -0.000103084Z" fill="#15521D"/>
</svg>
