<svg width="33" height="33" viewBox="0 0 33 33" fill="none" xmlns="http://www.w3.org/2000/svg">
<circle cx="16.5" cy="16.5" r="16" fill="white"/>
<g clip-path="url(#clip0_61_773)">
<mask id="mask0_61_773" style="mask-type:luminance" maskUnits="userSpaceOnUse" x="6" y="6" width="21" height="21">
<path d="M26.1307 15.0549H16.8125V18.9185H22.1761C21.6761 21.3731 19.5852 22.7821 16.8125 22.7821C13.5398 22.7821 10.9034 20.1458 10.9034 16.873C10.9034 13.6003 13.5398 10.964 16.8125 10.964C18.2216 10.964 19.4943 11.464 20.4943 12.2821L23.4034 9.37305C21.6307 7.82759 19.358 6.87305 16.8125 6.87305C11.267 6.87305 6.8125 11.3276 6.8125 16.873C6.8125 22.4185 11.267 26.8731 16.8125 26.8731C21.8125 26.8731 26.358 23.2367 26.358 16.873C26.358 16.2821 26.2671 15.6458 26.1307 15.0549Z" fill="white"/>
</mask>
<g mask="url(#mask0_61_773)">
<path d="M5.90234 22.7822V10.964L13.6296 16.8731L5.90234 22.7822Z" fill="#FBBC05"/>
</g>
<mask id="mask1_61_773" style="mask-type:luminance" maskUnits="userSpaceOnUse" x="6" y="6" width="21" height="21">
<path d="M26.1307 15.0549H16.8125V18.9185H22.1761C21.6761 21.3731 19.5852 22.7821 16.8125 22.7821C13.5398 22.7821 10.9034 20.1458 10.9034 16.873C10.9034 13.6003 13.5398 10.964 16.8125 10.964C18.2216 10.964 19.4943 11.464 20.4943 12.2821L23.4034 9.37305C21.6307 7.82759 19.358 6.87305 16.8125 6.87305C11.267 6.87305 6.8125 11.3276 6.8125 16.873C6.8125 22.4185 11.267 26.8731 16.8125 26.8731C21.8125 26.8731 26.358 23.2367 26.358 16.873C26.358 16.2821 26.2671 15.6458 26.1307 15.0549Z" fill="white"/>
</mask>
<g mask="url(#mask1_61_773)">
<path d="M5.90234 10.964L13.6296 16.8731L16.8114 14.1004L27.7205 12.3277V5.96402H5.90234V10.964Z" fill="#EA4335"/>
</g>
<mask id="mask2_61_773" style="mask-type:luminance" maskUnits="userSpaceOnUse" x="6" y="6" width="21" height="21">
<path d="M26.1307 15.0549H16.8125V18.9185H22.1761C21.6761 21.3731 19.5852 22.7821 16.8125 22.7821C13.5398 22.7821 10.9034 20.1458 10.9034 16.873C10.9034 13.6003 13.5398 10.964 16.8125 10.964C18.2216 10.964 19.4943 11.464 20.4943 12.2821L23.4034 9.37305C21.6307 7.82759 19.358 6.87305 16.8125 6.87305C11.267 6.87305 6.8125 11.3276 6.8125 16.873C6.8125 22.4185 11.267 26.8731 16.8125 26.8731C21.8125 26.8731 26.358 23.2367 26.358 16.873C26.358 16.2821 26.2671 15.6458 26.1307 15.0549Z" fill="white"/>
</mask>
<g mask="url(#mask2_61_773)">
<path d="M5.90234 22.7822L19.5387 12.3277L23.1296 12.7822L27.7205 5.96402V27.7822H5.90234V22.7822Z" fill="#34A853"/>
</g>
<mask id="mask3_61_773" style="mask-type:luminance" maskUnits="userSpaceOnUse" x="6" y="6" width="21" height="21">
<path d="M26.1307 15.0549H16.8125V18.9185H22.1761C21.6761 21.3731 19.5852 22.7821 16.8125 22.7821C13.5398 22.7821 10.9034 20.1458 10.9034 16.873C10.9034 13.6003 13.5398 10.964 16.8125 10.964C18.2216 10.964 19.4943 11.464 20.4943 12.2821L23.4034 9.37305C21.6307 7.82759 19.358 6.87305 16.8125 6.87305C11.267 6.87305 6.8125 11.3276 6.8125 16.873C6.8125 22.4185 11.267 26.8731 16.8125 26.8731C21.8125 26.8731 26.358 23.2367 26.358 16.873C26.358 16.2821 26.2671 15.6458 26.1307 15.0549Z" fill="white"/>
</mask>
<g mask="url(#mask3_61_773)">
<path d="M27.7216 27.7821L13.6307 16.8731L11.8125 15.5094L27.7216 10.964V27.7821Z" fill="#4285F4"/>
</g>
</g>
<defs>
<clipPath id="clip0_61_773">
<rect width="20" height="20" fill="white" transform="translate(6.5 6.87305)"/>
</clipPath>
</defs>
</svg>
