<svg width="22" height="23" viewBox="0 0 22 23" fill="none" xmlns="http://www.w3.org/2000/svg">
<path d="M6.41667 14.2501H12.8333V16.0834H6.41667V14.2501ZM6.41667 10.5834H15.5833V12.4167H6.41667V10.5834ZM6.41667 6.91675H15.5833V8.75008H6.41667V6.91675ZM17.4167 3.25008H13.585C13.2 2.18675 12.1917 1.41675 11 1.41675C9.80833 1.41675 8.8 2.18675 8.415 3.25008H4.58333C4.455 3.25008 4.33583 3.25925 4.21667 3.28675C3.92472 3.348 3.65204 3.47929 3.42209 3.66932C3.19215 3.85934 3.01183 4.10241 2.89667 4.37758C2.805 4.58841 2.75 4.82675 2.75 5.08341V17.9167C2.75 18.1642 2.805 18.4117 2.89667 18.6317C2.98833 18.8517 3.12583 19.0442 3.29083 19.2184C3.53833 19.4659 3.85917 19.6492 4.21667 19.7226C4.33583 19.7409 4.455 19.7501 4.58333 19.7501H17.4167C18.425 19.7501 19.25 18.9251 19.25 17.9167V5.08341C19.25 4.07508 18.425 3.25008 17.4167 3.25008ZM11 3.02091C11.3758 3.02091 11.6875 3.33258 11.6875 3.70841C11.6875 4.08425 11.3758 4.39591 11 4.39591C10.6242 4.39591 10.3125 4.08425 10.3125 3.70841C10.3125 3.33258 10.6242 3.02091 11 3.02091ZM17.4167 17.9167H4.58333V5.08341H17.4167V17.9167Z" fill="black"/>
</svg>
