<svg width="146" height="15" viewBox="0 0 146 15" fill="none" xmlns="http://www.w3.org/2000/svg">
<path d="M13.5547 3.61719H11.0859V1.99219H13.5547V3.61719ZM13.5547 6.71875H11.0859V5.07812H13.5547V6.71875ZM4.41406 1C5.14323 1 5.80208 1.14323 6.39062 1.42969C6.98438 1.71615 7.45052 2.125 7.78906 2.65625C8.1276 3.18229 8.29948 3.77604 8.30469 4.4375C8.29948 5.09896 8.1276 5.6901 7.78906 6.21094C7.45052 6.73177 6.98438 7.14062 6.39062 7.4375C5.80208 7.73438 5.14323 7.88281 4.41406 7.88281C3.6849 7.88281 3.02344 7.73438 2.42969 7.4375C1.83594 7.13542 1.36719 6.72396 1.02344 6.20312C0.684896 5.68229 0.515625 5.09375 0.515625 4.4375C0.515625 3.77604 0.684896 3.18229 1.02344 2.65625C1.36719 2.125 1.83594 1.71615 2.42969 1.42969C3.02344 1.14323 3.6849 1 4.41406 1ZM4.41406 2.67188C4.04427 2.66667 3.71094 2.73698 3.41406 2.88281C3.1224 3.02344 2.89323 3.22917 2.72656 3.5C2.5599 3.77083 2.47656 4.08333 2.47656 4.4375C2.47656 4.80208 2.5599 5.11719 2.72656 5.38281C2.89323 5.64844 3.1224 5.85156 3.41406 5.99219C3.71094 6.13281 4.04427 6.20312 4.41406 6.20312C4.78385 6.20312 5.11458 6.13281 5.40625 5.99219C5.70312 5.85156 5.9349 5.64844 6.10156 5.38281C6.27344 5.11719 6.35938 4.80208 6.35938 4.4375C6.35938 4.08333 6.27344 3.77083 6.10156 3.5C5.9349 3.22917 5.70312 3.02344 5.40625 2.88281C5.11458 2.73698 4.78385 2.66667 4.41406 2.67188ZM11.7031 8.53125H9.71094V0.203125H11.7031V8.53125ZM7.03906 8.82031C8.01302 8.82031 8.86198 8.93229 9.58594 9.15625C10.3099 9.38021 10.8646 9.70573 11.25 10.1328C11.6406 10.5547 11.8359 11.0573 11.8359 11.6406C11.8359 12.2188 11.6406 12.7161 11.25 13.1328C10.8646 13.5495 10.3099 13.8698 9.58594 14.0938C8.86198 14.3229 8.01302 14.4375 7.03906 14.4375C6.05469 14.4375 5.19531 14.3229 4.46094 14.0938C3.72656 13.8698 3.15885 13.5495 2.75781 13.1328C2.36198 12.7161 2.16406 12.2188 2.16406 11.6406C2.16406 11.0573 2.36198 10.5547 2.75781 10.1328C3.15885 9.70573 3.72656 9.38021 4.46094 9.15625C5.19531 8.93229 6.05469 8.82031 7.03906 8.82031ZM7.03906 10.3906C6.41927 10.3958 5.89583 10.4453 5.46875 10.5391C5.04167 10.6276 4.71615 10.7656 4.49219 10.9531C4.27344 11.1354 4.16667 11.3646 4.17188 11.6406C4.16667 11.9167 4.27344 12.1432 4.49219 12.3203C4.71094 12.4974 5.03125 12.6328 5.45312 12.7266C5.88021 12.8151 6.40885 12.8594 7.03906 12.8594C7.65885 12.8594 8.17969 12.8151 8.60156 12.7266C9.02344 12.6328 9.34115 12.4974 9.55469 12.3203C9.76823 12.1432 9.875 11.9167 9.875 11.6406C9.875 11.3646 9.76562 11.1354 9.54688 10.9531C9.33333 10.7656 9.01562 10.6276 8.59375 10.5391C8.17708 10.4453 7.65885 10.3958 7.03906 10.3906ZM24.8516 3.67188H20.6172V2.09375H24.8516V3.67188ZM24.8516 6.84375H20.6172V5.25781H24.8516V6.84375ZM18.2188 0.976562C18.9219 0.976562 19.5599 1.125 20.1328 1.42188C20.7057 1.71875 21.1562 2.13542 21.4844 2.67188C21.8125 3.20312 21.9792 3.79948 21.9844 4.46094C21.9792 5.1224 21.8125 5.71615 21.4844 6.24219C21.1562 6.76823 20.7031 7.18229 20.125 7.48438C19.5521 7.78646 18.9167 7.9375 18.2188 7.9375C17.5052 7.9375 16.8594 7.78646 16.2812 7.48438C15.7083 7.18229 15.2552 6.76823 14.9219 6.24219C14.5938 5.71615 14.4297 5.1224 14.4297 4.46094C14.4297 3.79948 14.5938 3.20312 14.9219 2.67188C15.2552 2.13542 15.7083 1.71875 16.2812 1.42188C16.8594 1.125 17.5052 0.976562 18.2188 0.976562ZM18.2188 2.6875C17.849 2.6875 17.5208 2.75781 17.2344 2.89844C16.9479 3.03385 16.724 3.23698 16.5625 3.50781C16.401 3.77865 16.3203 4.09635 16.3203 4.46094C16.3203 4.82031 16.401 5.13542 16.5625 5.40625C16.724 5.67708 16.9479 5.88802 17.2344 6.03906C17.5208 6.1849 17.849 6.25781 18.2188 6.25781C18.5729 6.25781 18.8906 6.1849 19.1719 6.03906C19.4583 5.88802 19.6797 5.67708 19.8359 5.40625C19.9974 5.13542 20.0781 4.82031 20.0781 4.46094C20.0781 4.09635 19.9974 3.77865 19.8359 3.50781C19.6797 3.23698 19.4609 3.03385 19.1797 2.89844C18.8984 2.75781 18.5781 2.6875 18.2188 2.6875ZM26.2344 8.54688H24.25V0.203125H26.2344V8.54688ZM21.375 8.84375C22.375 8.84375 23.2422 8.95312 23.9766 9.17188C24.7161 9.39062 25.2839 9.71094 25.6797 10.1328C26.0755 10.5547 26.276 11.0573 26.2812 11.6406C26.276 12.2188 26.0755 12.7161 25.6797 13.1328C25.2839 13.5547 24.7161 13.8776 23.9766 14.1016C23.2422 14.3255 22.375 14.4375 21.375 14.4375C20.375 14.4375 19.5078 14.3255 18.7734 14.1016C18.0443 13.8776 17.4818 13.5547 17.0859 13.1328C16.6901 12.7161 16.4922 12.2188 16.4922 11.6406C16.4922 11.0573 16.6901 10.5547 17.0859 10.1328C17.4818 9.71094 18.0443 9.39062 18.7734 9.17188C19.5078 8.95312 20.375 8.84375 21.375 8.84375ZM21.375 10.3594C20.7396 10.3646 20.2031 10.4141 19.7656 10.5078C19.3333 10.6016 19.0026 10.7448 18.7734 10.9375C18.5495 11.125 18.4401 11.3594 18.4453 11.6406C18.4401 11.9115 18.5495 12.1406 18.7734 12.3281C19.0026 12.5104 19.3333 12.651 19.7656 12.75C20.2031 12.8438 20.7396 12.8906 21.375 12.8906C22.0208 12.8906 22.5625 12.8438 23 12.75C23.4375 12.651 23.7682 12.5104 23.9922 12.3281C24.2161 12.1406 24.3281 11.9115 24.3281 11.6406C24.3281 11.3594 24.2161 11.125 23.9922 10.9375C23.7682 10.7448 23.4375 10.6016 23 10.5078C22.5625 10.4141 22.0208 10.3646 21.375 10.3594ZM36.5156 3.0625H28.0703V1.49219H36.5156V3.0625ZM32.3047 3.51562C32.9818 3.51562 33.5833 3.625 34.1094 3.84375C34.6406 4.0625 35.0547 4.3724 35.3516 4.77344C35.6536 5.16927 35.8047 5.6224 35.8047 6.13281C35.8047 6.64844 35.6562 7.10677 35.3594 7.50781C35.0625 7.90365 34.6484 8.21094 34.1172 8.42969C33.5859 8.64844 32.9818 8.75781 32.3047 8.75781C31.6224 8.75781 31.013 8.64844 30.4766 8.42969C29.9401 8.21094 29.5208 7.90365 29.2188 7.50781C28.9219 7.10677 28.7734 6.64844 28.7734 6.13281C28.7734 5.6224 28.9219 5.16927 29.2188 4.77344C29.5208 4.3724 29.9375 4.0625 30.4688 3.84375C31.0052 3.625 31.6172 3.51562 32.3047 3.51562ZM32.3047 5.00781C31.9818 5.00781 31.7005 5.05208 31.4609 5.14062C31.2214 5.22917 31.0365 5.35938 30.9062 5.53125C30.776 5.69792 30.7109 5.89844 30.7109 6.13281C30.7109 6.3724 30.776 6.57552 30.9062 6.74219C31.0365 6.90365 31.2214 7.02604 31.4609 7.10938C31.7005 7.19271 31.9818 7.23438 32.3047 7.23438C32.6224 7.23438 32.901 7.19271 33.1406 7.10938C33.3854 7.02604 33.5755 6.90365 33.7109 6.74219C33.8464 6.57552 33.9141 6.3724 33.9141 6.13281C33.9141 5.89844 33.8464 5.69792 33.7109 5.53125C33.5755 5.35938 33.3854 5.22917 33.1406 5.14062C32.901 5.05208 32.6224 5.00781 32.3047 5.00781ZM39.3594 9.14062H37.3672V0.203125H39.3594V9.14062ZM41.2812 5.53125H38.7969V3.90625H41.2812V5.53125ZM39.3594 14.4375H37.3672V11.3203H29.7891V9.73438H39.3594V14.4375ZM33.2969 2.375H31.3047V0.140625H33.2969V2.375ZM47.6641 10.6328H45.6562V7.49219H47.6641V10.6328ZM53.9531 10.9766H51.9531V0.234375H53.9531V10.9766ZM54.2656 14.1953H43.6562V12.5859H54.2656V14.1953ZM45.6641 13.0156H43.6562V9.94531H45.6641V13.0156ZM41.8516 6.53906C43.7474 6.52344 45.4141 6.48958 46.8516 6.4375C48.2891 6.38021 49.6693 6.26823 50.9922 6.10156L51.0938 7.53125C49.7188 7.76042 48.2786 7.91667 46.7734 8C45.2734 8.07812 43.7109 8.11458 42.0859 8.10938L41.8516 6.53906ZM52.4062 9.84375H49.2344V8.48438H52.4062V9.84375ZM46.4766 0.710938C47.1589 0.710938 47.7708 0.817708 48.3125 1.03125C48.8542 1.24479 49.276 1.54688 49.5781 1.9375C49.8802 2.32292 50.0312 2.76302 50.0312 3.25781C50.0312 3.76302 49.8802 4.20312 49.5781 4.57812C49.276 4.95312 48.8542 5.2474 48.3125 5.46094C47.776 5.66927 47.1641 5.77344 46.4766 5.77344C45.7786 5.77344 45.1589 5.66927 44.6172 5.46094C44.0807 5.2474 43.6615 4.95312 43.3594 4.57812C43.0573 4.20312 42.9062 3.76302 42.9062 3.25781C42.9062 2.76302 43.0573 2.32031 43.3594 1.92969C43.6615 1.53906 44.0833 1.23958 44.625 1.03125C45.1667 0.817708 45.7839 0.710938 46.4766 0.710938ZM46.4766 2.17188C46.138 2.17188 45.8438 2.21354 45.5938 2.29688C45.3438 2.38021 45.1458 2.50521 45 2.67188C44.8594 2.83333 44.7917 3.02865 44.7969 3.25781C44.7917 3.48698 44.8594 3.68229 45 3.84375C45.1458 4.00521 45.3438 4.1276 45.5938 4.21094C45.8438 4.29427 46.138 4.33594 46.4766 4.33594C46.8047 4.33594 47.0911 4.29427 47.3359 4.21094C47.5859 4.1276 47.7812 4.00521 47.9219 3.84375C48.0625 3.68229 48.1328 3.48698 48.1328 3.25781C48.1328 3.03385 48.0625 2.83854 47.9219 2.67188C47.7812 2.50521 47.5859 2.38021 47.3359 2.29688C47.0911 2.21354 46.8047 2.17188 46.4766 2.17188ZM69.8828 3.02344H60.7734V1.44531H69.8828V3.02344ZM72.4141 12.6953H59.4453V11.0781H72.4141V12.6953ZM66.0625 11.9062H64.0859V6.1875H66.0625V11.9062ZM71.1484 2.95312C71.1484 4.125 71.1146 5.20052 71.0469 6.17969C70.9844 7.15885 70.8333 8.29948 70.5938 9.60156L68.5703 9.39062C68.7474 8.53646 68.8776 7.72917 68.9609 6.96875C69.0443 6.20312 69.0964 5.52865 69.1172 4.94531C69.138 4.36198 69.1484 3.67708 69.1484 2.89062V2.79688V1.44531H71.1484V2.79688V2.95312ZM86.2656 8.34375H73.2734V6.71875H86.2656V8.34375ZM84.7812 5.72656H74.8438V4.13281H84.7812V5.72656ZM84.7031 2.19531H76.8203V4.9375H74.8438V0.601562H84.7031V2.19531ZM79.7344 9.19531C80.7604 9.19531 81.6432 9.29688 82.3828 9.5C83.1224 9.70312 83.6901 10.0026 84.0859 10.3984C84.4818 10.7891 84.6823 11.2578 84.6875 11.8047C84.6823 12.362 84.4818 12.8385 84.0859 13.2344C83.6953 13.6302 83.1276 13.9297 82.3828 14.1328C81.6432 14.3359 80.7604 14.4375 79.7344 14.4375C78.6979 14.4375 77.8073 14.3359 77.0625 14.1328C76.3177 13.9297 75.7448 13.6302 75.3438 13.2344C74.9479 12.8385 74.75 12.362 74.75 11.8047C74.75 11.2578 74.9479 10.7891 75.3438 10.3984C75.7448 10.0026 76.3177 9.70312 77.0625 9.5C77.8073 9.29688 78.6979 9.19531 79.7344 9.19531ZM79.7344 10.7109C79.0781 10.7161 78.5312 10.7604 78.0938 10.8438C77.6562 10.9219 77.3255 11.0417 77.1016 11.2031C76.8828 11.3646 76.776 11.5651 76.7812 11.8047C76.776 12.0547 76.8828 12.263 77.1016 12.4297C77.3255 12.5964 77.6536 12.7188 78.0859 12.7969C78.5234 12.875 79.0729 12.9167 79.7344 12.9219C80.3854 12.9167 80.9297 12.875 81.3672 12.7969C81.8047 12.7188 82.1328 12.5964 82.3516 12.4297C82.5703 12.263 82.6797 12.0547 82.6797 11.8047C82.6797 11.5651 82.5677 11.3646 82.3438 11.2031C82.125 11.0417 81.7969 10.9219 81.3594 10.8438C80.9219 10.7604 80.3802 10.7161 79.7344 10.7109ZM100.086 9.98438H87.0859V8.42188H100.086V9.98438ZM94.5312 14.4375H92.5547V9.1875H94.5312V14.4375ZM90.5703 2.39844H96.5469V0.765625H98.5469V7.04688H88.6016V0.765625H90.5703V2.39844ZM96.5469 5.45312V3.96094H90.5703V5.45312H96.5469ZM115.227 3.67188H110.992V2.09375H115.227V3.67188ZM115.227 6.84375H110.992V5.25781H115.227V6.84375ZM108.594 0.976562C109.297 0.976562 109.935 1.125 110.508 1.42188C111.081 1.71875 111.531 2.13542 111.859 2.67188C112.188 3.20312 112.354 3.79948 112.359 4.46094C112.354 5.1224 112.188 5.71615 111.859 6.24219C111.531 6.76823 111.078 7.18229 110.5 7.48438C109.927 7.78646 109.292 7.9375 108.594 7.9375C107.88 7.9375 107.234 7.78646 106.656 7.48438C106.083 7.18229 105.63 6.76823 105.297 6.24219C104.969 5.71615 104.805 5.1224 104.805 4.46094C104.805 3.79948 104.969 3.20312 105.297 2.67188C105.63 2.13542 106.083 1.71875 106.656 1.42188C107.234 1.125 107.88 0.976562 108.594 0.976562ZM108.594 2.6875C108.224 2.6875 107.896 2.75781 107.609 2.89844C107.323 3.03385 107.099 3.23698 106.938 3.50781C106.776 3.77865 106.695 4.09635 106.695 4.46094C106.695 4.82031 106.776 5.13542 106.938 5.40625C107.099 5.67708 107.323 5.88802 107.609 6.03906C107.896 6.1849 108.224 6.25781 108.594 6.25781C108.948 6.25781 109.266 6.1849 109.547 6.03906C109.833 5.88802 110.055 5.67708 110.211 5.40625C110.372 5.13542 110.453 4.82031 110.453 4.46094C110.453 4.09635 110.372 3.77865 110.211 3.50781C110.055 3.23698 109.836 3.03385 109.555 2.89844C109.273 2.75781 108.953 2.6875 108.594 2.6875ZM116.609 8.54688H114.625V0.203125H116.609V8.54688ZM111.75 8.84375C112.75 8.84375 113.617 8.95312 114.352 9.17188C115.091 9.39062 115.659 9.71094 116.055 10.1328C116.451 10.5547 116.651 11.0573 116.656 11.6406C116.651 12.2188 116.451 12.7161 116.055 13.1328C115.659 13.5547 115.091 13.8776 114.352 14.1016C113.617 14.3255 112.75 14.4375 111.75 14.4375C110.75 14.4375 109.883 14.3255 109.148 14.1016C108.419 13.8776 107.857 13.5547 107.461 13.1328C107.065 12.7161 106.867 12.2188 106.867 11.6406C106.867 11.0573 107.065 10.5547 107.461 10.1328C107.857 9.71094 108.419 9.39062 109.148 9.17188C109.883 8.95312 110.75 8.84375 111.75 8.84375ZM111.75 10.3594C111.115 10.3646 110.578 10.4141 110.141 10.5078C109.708 10.6016 109.378 10.7448 109.148 10.9375C108.924 11.125 108.815 11.3594 108.82 11.6406C108.815 11.9115 108.924 12.1406 109.148 12.3281C109.378 12.5104 109.708 12.651 110.141 12.75C110.578 12.8438 111.115 12.8906 111.75 12.8906C112.396 12.8906 112.938 12.8438 113.375 12.75C113.812 12.651 114.143 12.5104 114.367 12.3281C114.591 12.1406 114.703 11.9115 114.703 11.6406C114.703 11.3594 114.591 11.125 114.367 10.9375C114.143 10.7448 113.812 10.6016 113.375 10.5078C112.938 10.4141 112.396 10.3646 111.75 10.3594ZM122.375 1.21094C123.083 1.21094 123.716 1.41927 124.273 1.83594C124.836 2.2474 125.273 2.83854 125.586 3.60938C125.898 4.375 126.055 5.26562 126.055 6.28125C126.055 7.30208 125.898 8.19792 125.586 8.96875C125.273 9.73438 124.836 10.3229 124.273 10.7344C123.716 11.1458 123.083 11.3516 122.375 11.3516C121.656 11.3516 121.018 11.1458 120.461 10.7344C119.904 10.3229 119.466 9.73438 119.148 8.96875C118.831 8.19792 118.672 7.30208 118.672 6.28125C118.672 5.26562 118.831 4.375 119.148 3.60938C119.466 2.83854 119.904 2.2474 120.461 1.83594C121.018 1.41927 121.656 1.21094 122.375 1.21094ZM122.375 3.01562C122.016 3.01042 121.703 3.13542 121.438 3.39062C121.172 3.64583 120.964 4.01823 120.812 4.50781C120.661 4.9974 120.589 5.58854 120.594 6.28125C120.589 6.97396 120.661 7.5651 120.812 8.05469C120.964 8.54427 121.172 8.91667 121.438 9.17188C121.703 9.42188 122.016 9.54688 122.375 9.54688C122.734 9.54688 123.049 9.42188 123.32 9.17188C123.591 8.91667 123.799 8.54427 123.945 8.05469C124.091 7.5651 124.164 6.97396 124.164 6.28125C124.164 5.58854 124.091 4.9974 123.945 4.50781C123.799 4.01302 123.591 3.64062 123.32 3.39062C123.049 3.13542 122.734 3.01042 122.375 3.01562ZM130.453 14.4766H128.477V0.203125H130.453V14.4766ZM129.328 6.95312H125.461V5.35156H129.328V6.95312ZM139.078 3.23438H132.906V1.64062H139.078V3.23438ZM136.734 10.5391H134.773V5.71094H136.734V10.5391ZM140.273 2.88281C140.268 3.83073 140.242 4.70573 140.195 5.50781C140.154 6.3099 140.052 7.21875 139.891 8.23438L137.93 8.07031C138.081 7.08073 138.177 6.21094 138.219 5.46094C138.26 4.70573 138.284 3.84115 138.289 2.86719V2.77344V1.64062H140.273V2.77344V2.88281ZM143.539 14.4375H141.531V0.203125H143.539V14.4375ZM145.469 7.59375H142.945V5.92969H145.469V7.59375ZM132.156 9.94531C133.865 9.9349 135.427 9.90104 136.844 9.84375C138.26 9.78646 139.599 9.67969 140.859 9.52344L140.977 11C139.664 11.224 138.284 11.3724 136.836 11.4453C135.393 11.513 133.898 11.5417 132.352 11.5312L132.156 9.94531Z" fill="black"/>
</svg>
