<svg width="22" height="23" viewBox="0 0 22 23" fill="none" xmlns="http://www.w3.org/2000/svg">
<path d="M19.4674 5.34779L11.2174 2.59779C11.0763 2.55074 10.9237 2.55074 10.7826 2.59779L2.53258 5.34779C2.39568 5.39342 2.27662 5.48097 2.19225 5.59804C2.10788 5.71511 2.06249 5.85575 2.0625 6.00005V12.8751C2.0625 13.0574 2.13493 13.2323 2.26386 13.3612C2.3928 13.4901 2.56766 13.5626 2.75 13.5626C2.93234 13.5626 3.1072 13.4901 3.23614 13.3612C3.36507 13.2323 3.4375 13.0574 3.4375 12.8751V6.95396L6.32414 7.9156C5.5572 9.15465 5.31331 10.6474 5.64604 12.0661C5.97876 13.4848 6.8609 14.7135 8.09875 15.4824C6.55187 16.0891 5.21469 17.1865 4.23672 18.687C4.18586 18.7626 4.15053 18.8475 4.13279 18.9369C4.11504 19.0263 4.11524 19.1183 4.13337 19.2076C4.1515 19.2969 4.18719 19.3817 4.23838 19.457C4.28957 19.5324 4.35523 19.5969 4.43154 19.6466C4.50785 19.6964 4.5933 19.7305 4.68291 19.747C4.77253 19.7634 4.86452 19.7619 4.95354 19.7425C5.04256 19.7231 5.12684 19.6862 5.20147 19.634C5.2761 19.5817 5.3396 19.5151 5.38828 19.4381C6.68336 17.4512 8.72867 16.3126 11 16.3126C13.2713 16.3126 15.3166 17.4512 16.6117 19.4381C16.7126 19.588 16.8683 19.6921 17.0453 19.7281C17.2224 19.764 17.4064 19.7288 17.5577 19.6302C17.709 19.5315 17.8154 19.3772 17.8539 19.2007C17.8923 19.0242 17.8598 18.8397 17.7633 18.687C16.7853 17.1865 15.443 16.0891 13.9012 15.4824C15.1379 14.7136 16.0192 13.4857 16.3519 12.068C16.6846 10.6503 16.4414 9.15858 15.6759 7.91989L19.4674 6.65661C19.6043 6.611 19.7234 6.52346 19.8078 6.4064C19.8922 6.28933 19.9377 6.14867 19.9377 6.00435C19.9377 5.86003 19.8922 5.71937 19.8078 5.6023C19.7234 5.48523 19.6043 5.39769 19.4674 5.35208V5.34779ZM15.125 10.8126C15.1252 11.4647 14.9707 12.1076 14.6744 12.6885C14.378 13.2694 13.9481 13.7717 13.4199 14.1543C12.8918 14.5369 12.2805 14.7888 11.6362 14.8894C10.9918 14.9899 10.3328 14.9363 9.71321 14.7329C9.09361 14.5294 8.53108 14.182 8.07176 13.7191C7.61244 13.2561 7.26942 12.6909 7.07086 12.0697C6.8723 11.4485 6.82384 10.7891 6.92947 10.1456C7.0351 9.50206 7.2918 8.89274 7.67851 8.36763L10.7826 9.39888C10.9237 9.44593 11.0763 9.44593 11.2174 9.39888L14.3215 8.36763C14.8438 9.07575 15.1254 9.93264 15.125 10.8126Z" fill="black"/>
</svg>
